<?xml version="1.0" encoding="utf-8" standalone="no"?>
<!DOCTYPE svg PUBLIC "-//W3C//DTD SVG 1.1//EN"
  "http://www.w3.org/Graphics/SVG/1.1/DTD/svg11.dtd">
<svg xmlns:xlink="http://www.w3.org/1999/xlink" width="460.8pt" height="345.6pt" viewBox="0 0 460.8 345.6" xmlns="http://www.w3.org/2000/svg" version="1.1">
 <metadata>
  <rdf:RDF xmlns:dc="http://purl.org/dc/elements/1.1/" xmlns:cc="http://creativecommons.org/ns#" xmlns:rdf="http://www.w3.org/1999/02/22-rdf-syntax-ns#">
   <cc:Work>
    <dc:type rdf:resource="http://purl.org/dc/dcmitype/StillImage"/>
    <dc:date>2022-10-01T22:22:20.400488</dc:date>
    <dc:format>image/svg+xml</dc:format>
    <dc:creator>
     <cc:Agent>
      <dc:title>Matplotlib v3.6.0, https://matplotlib.org/</dc:title>
     </cc:Agent>
    </dc:creator>
   </cc:Work>
  </rdf:RDF>
 </metadata>
 <defs>
  <style type="text/css">*{stroke-linejoin: round; stroke-linecap: butt}</style>
 </defs>
 <g id="figure_1">
  <g id="patch_1">
   <path d="M 0 345.6 
L 460.8 345.6 
L 460.8 0 
L 0 0 
z
" style="fill: #ffffff"/>
  </g>
  <g id="axes_1">
   <g id="patch_2">
    <path d="M 57.6 307.584 
L 414.72 307.584 
L 414.72 41.472 
L 57.6 41.472 
z
" style="fill: #ffffff"/>
   </g>
   <g id="matplotlib.axis_1">
    <g id="xtick_1">
     <g id="line2d_1">
      <defs>
       <path id="m3dbd3741ff" d="M 0 0 
L 0 3.5 
" style="stroke: #000000; stroke-width: 0.8"/>
      </defs>
      <g>
       <use xlink:href="#m3dbd3741ff" x="96.502268" y="307.584" style="stroke: #000000; stroke-width: 0.8"/>
      </g>
     </g>
     <g id="text_1">
      <!-- $\mathdefault{10^{1}}$ -->
      <g transform="translate(87.702268 322.182437) scale(0.1 -0.1)">
       <defs>
        <path id="DejaVuSans-31" d="M 794 531 
L 1825 531 
L 1825 4091 
L 703 3866 
L 703 4441 
L 1819 4666 
L 2450 4666 
L 2450 531 
L 3481 531 
L 3481 0 
L 794 0 
L 794 531 
z
" transform="scale(0.015625)"/>
        <path id="DejaVuSans-30" d="M 2034 4250 
Q 1547 4250 1301 3770 
Q 1056 3291 1056 2328 
Q 1056 1369 1301 889 
Q 1547 409 2034 409 
Q 2525 409 2770 889 
Q 3016 1369 3016 2328 
Q 3016 3291 2770 3770 
Q 2525 4250 2034 4250 
z
M 2034 4750 
Q 2819 4750 3233 4129 
Q 3647 3509 3647 2328 
Q 3647 1150 3233 529 
Q 2819 -91 2034 -91 
Q 1250 -91 836 529 
Q 422 1150 422 2328 
Q 422 3509 836 4129 
Q 1250 4750 2034 4750 
z
" transform="scale(0.015625)"/>
       </defs>
       <use xlink:href="#DejaVuSans-31" transform="translate(0 0.684375)"/>
       <use xlink:href="#DejaVuSans-30" transform="translate(63.623047 0.684375)"/>
       <use xlink:href="#DejaVuSans-31" transform="translate(128.203125 38.965625) scale(0.7)"/>
      </g>
     </g>
    </g>
    <g id="xtick_2">
     <g id="line2d_2">
      <g>
       <use xlink:href="#m3dbd3741ff" x="153.4695" y="307.584" style="stroke: #000000; stroke-width: 0.8"/>
      </g>
     </g>
     <g id="text_2">
      <!-- $\mathdefault{10^{2}}$ -->
      <g transform="translate(144.6695 322.182437) scale(0.1 -0.1)">
       <defs>
        <path id="DejaVuSans-32" d="M 1228 531 
L 3431 531 
L 3431 0 
L 469 0 
L 469 531 
Q 828 903 1448 1529 
Q 2069 2156 2228 2338 
Q 2531 2678 2651 2914 
Q 2772 3150 2772 3378 
Q 2772 3750 2511 3984 
Q 2250 4219 1831 4219 
Q 1534 4219 1204 4116 
Q 875 4013 500 3803 
L 500 4441 
Q 881 4594 1212 4672 
Q 1544 4750 1819 4750 
Q 2544 4750 2975 4387 
Q 3406 4025 3406 3419 
Q 3406 3131 3298 2873 
Q 3191 2616 2906 2266 
Q 2828 2175 2409 1742 
Q 1991 1309 1228 531 
z
" transform="scale(0.015625)"/>
       </defs>
       <use xlink:href="#DejaVuSans-31" transform="translate(0 0.765625)"/>
       <use xlink:href="#DejaVuSans-30" transform="translate(63.623047 0.765625)"/>
       <use xlink:href="#DejaVuSans-32" transform="translate(128.203125 39.046875) scale(0.7)"/>
      </g>
     </g>
    </g>
    <g id="xtick_3">
     <g id="line2d_3">
      <g>
       <use xlink:href="#m3dbd3741ff" x="210.436732" y="307.584" style="stroke: #000000; stroke-width: 0.8"/>
      </g>
     </g>
     <g id="text_3">
      <!-- $\mathdefault{10^{3}}$ -->
      <g transform="translate(201.636732 322.182437) scale(0.1 -0.1)">
       <defs>
        <path id="DejaVuSans-33" d="M 2597 2516 
Q 3050 2419 3304 2112 
Q 3559 1806 3559 1356 
Q 3559 666 3084 287 
Q 2609 -91 1734 -91 
Q 1441 -91 1130 -33 
Q 819 25 488 141 
L 488 750 
Q 750 597 1062 519 
Q 1375 441 1716 441 
Q 2309 441 2620 675 
Q 2931 909 2931 1356 
Q 2931 1769 2642 2001 
Q 2353 2234 1838 2234 
L 1294 2234 
L 1294 2753 
L 1863 2753 
Q 2328 2753 2575 2939 
Q 2822 3125 2822 3475 
Q 2822 3834 2567 4026 
Q 2313 4219 1838 4219 
Q 1578 4219 1281 4162 
Q 984 4106 628 3988 
L 628 4550 
Q 988 4650 1302 4700 
Q 1616 4750 1894 4750 
Q 2613 4750 3031 4423 
Q 3450 4097 3450 3541 
Q 3450 3153 3228 2886 
Q 3006 2619 2597 2516 
z
" transform="scale(0.015625)"/>
       </defs>
       <use xlink:href="#DejaVuSans-31" transform="translate(0 0.765625)"/>
       <use xlink:href="#DejaVuSans-30" transform="translate(63.623047 0.765625)"/>
       <use xlink:href="#DejaVuSans-33" transform="translate(128.203125 39.046875) scale(0.7)"/>
      </g>
     </g>
    </g>
    <g id="xtick_4">
     <g id="line2d_4">
      <g>
       <use xlink:href="#m3dbd3741ff" x="267.403964" y="307.584" style="stroke: #000000; stroke-width: 0.8"/>
      </g>
     </g>
     <g id="text_4">
      <!-- $\mathdefault{10^{4}}$ -->
      <g transform="translate(258.603964 322.182437) scale(0.1 -0.1)">
       <defs>
        <path id="DejaVuSans-34" d="M 2419 4116 
L 825 1625 
L 2419 1625 
L 2419 4116 
z
M 2253 4666 
L 3047 4666 
L 3047 1625 
L 3713 1625 
L 3713 1100 
L 3047 1100 
L 3047 0 
L 2419 0 
L 2419 1100 
L 313 1100 
L 313 1709 
L 2253 4666 
z
" transform="scale(0.015625)"/>
       </defs>
       <use xlink:href="#DejaVuSans-31" transform="translate(0 0.684375)"/>
       <use xlink:href="#DejaVuSans-30" transform="translate(63.623047 0.684375)"/>
       <use xlink:href="#DejaVuSans-34" transform="translate(128.203125 38.965625) scale(0.7)"/>
      </g>
     </g>
    </g>
    <g id="xtick_5">
     <g id="line2d_5">
      <g>
       <use xlink:href="#m3dbd3741ff" x="324.371195" y="307.584" style="stroke: #000000; stroke-width: 0.8"/>
      </g>
     </g>
     <g id="text_5">
      <!-- $\mathdefault{10^{5}}$ -->
      <g transform="translate(315.571195 322.182437) scale(0.1 -0.1)">
       <defs>
        <path id="DejaVuSans-35" d="M 691 4666 
L 3169 4666 
L 3169 4134 
L 1269 4134 
L 1269 2991 
Q 1406 3038 1543 3061 
Q 1681 3084 1819 3084 
Q 2600 3084 3056 2656 
Q 3513 2228 3513 1497 
Q 3513 744 3044 326 
Q 2575 -91 1722 -91 
Q 1428 -91 1123 -41 
Q 819 9 494 109 
L 494 744 
Q 775 591 1075 516 
Q 1375 441 1709 441 
Q 2250 441 2565 725 
Q 2881 1009 2881 1497 
Q 2881 1984 2565 2268 
Q 2250 2553 1709 2553 
Q 1456 2553 1204 2497 
Q 953 2441 691 2322 
L 691 4666 
z
" transform="scale(0.015625)"/>
       </defs>
       <use xlink:href="#DejaVuSans-31" transform="translate(0 0.684375)"/>
       <use xlink:href="#DejaVuSans-30" transform="translate(63.623047 0.684375)"/>
       <use xlink:href="#DejaVuSans-35" transform="translate(128.203125 38.965625) scale(0.7)"/>
      </g>
     </g>
    </g>
    <g id="xtick_6">
     <g id="line2d_6">
      <g>
       <use xlink:href="#m3dbd3741ff" x="381.338427" y="307.584" style="stroke: #000000; stroke-width: 0.8"/>
      </g>
     </g>
     <g id="text_6">
      <!-- $\mathdefault{10^{6}}$ -->
      <g transform="translate(372.538427 322.182437) scale(0.1 -0.1)">
       <defs>
        <path id="DejaVuSans-36" d="M 2113 2584 
Q 1688 2584 1439 2293 
Q 1191 2003 1191 1497 
Q 1191 994 1439 701 
Q 1688 409 2113 409 
Q 2538 409 2786 701 
Q 3034 994 3034 1497 
Q 3034 2003 2786 2293 
Q 2538 2584 2113 2584 
z
M 3366 4563 
L 3366 3988 
Q 3128 4100 2886 4159 
Q 2644 4219 2406 4219 
Q 1781 4219 1451 3797 
Q 1122 3375 1075 2522 
Q 1259 2794 1537 2939 
Q 1816 3084 2150 3084 
Q 2853 3084 3261 2657 
Q 3669 2231 3669 1497 
Q 3669 778 3244 343 
Q 2819 -91 2113 -91 
Q 1303 -91 875 529 
Q 447 1150 447 2328 
Q 447 3434 972 4092 
Q 1497 4750 2381 4750 
Q 2619 4750 2861 4703 
Q 3103 4656 3366 4563 
z
" transform="scale(0.015625)"/>
       </defs>
       <use xlink:href="#DejaVuSans-31" transform="translate(0 0.765625)"/>
       <use xlink:href="#DejaVuSans-30" transform="translate(63.623047 0.765625)"/>
       <use xlink:href="#DejaVuSans-36" transform="translate(128.203125 39.046875) scale(0.7)"/>
      </g>
     </g>
    </g>
    <g id="xtick_7">
     <g id="line2d_7">
      <defs>
       <path id="md6d1ead71f" d="M 0 0 
L 0 2 
" style="stroke: #000000; stroke-width: 0.6"/>
      </defs>
      <g>
       <use xlink:href="#md6d1ead71f" x="66.715313" y="307.584" style="stroke: #000000; stroke-width: 0.6"/>
      </g>
     </g>
    </g>
    <g id="xtick_8">
     <g id="line2d_8">
      <g>
       <use xlink:href="#md6d1ead71f" x="73.832727" y="307.584" style="stroke: #000000; stroke-width: 0.6"/>
      </g>
     </g>
    </g>
    <g id="xtick_9">
     <g id="line2d_9">
      <g>
       <use xlink:href="#md6d1ead71f" x="79.353422" y="307.584" style="stroke: #000000; stroke-width: 0.6"/>
      </g>
     </g>
    </g>
    <g id="xtick_10">
     <g id="line2d_10">
      <g>
       <use xlink:href="#md6d1ead71f" x="83.864159" y="307.584" style="stroke: #000000; stroke-width: 0.6"/>
      </g>
     </g>
    </g>
    <g id="xtick_11">
     <g id="line2d_11">
      <g>
       <use xlink:href="#md6d1ead71f" x="87.677932" y="307.584" style="stroke: #000000; stroke-width: 0.6"/>
      </g>
     </g>
    </g>
    <g id="xtick_12">
     <g id="line2d_12">
      <g>
       <use xlink:href="#md6d1ead71f" x="90.981573" y="307.584" style="stroke: #000000; stroke-width: 0.6"/>
      </g>
     </g>
    </g>
    <g id="xtick_13">
     <g id="line2d_13">
      <g>
       <use xlink:href="#md6d1ead71f" x="93.89559" y="307.584" style="stroke: #000000; stroke-width: 0.6"/>
      </g>
     </g>
    </g>
    <g id="xtick_14">
     <g id="line2d_14">
      <g>
       <use xlink:href="#md6d1ead71f" x="113.651114" y="307.584" style="stroke: #000000; stroke-width: 0.6"/>
      </g>
     </g>
    </g>
    <g id="xtick_15">
     <g id="line2d_15">
      <g>
       <use xlink:href="#md6d1ead71f" x="123.682545" y="307.584" style="stroke: #000000; stroke-width: 0.6"/>
      </g>
     </g>
    </g>
    <g id="xtick_16">
     <g id="line2d_16">
      <g>
       <use xlink:href="#md6d1ead71f" x="130.799959" y="307.584" style="stroke: #000000; stroke-width: 0.6"/>
      </g>
     </g>
    </g>
    <g id="xtick_17">
     <g id="line2d_17">
      <g>
       <use xlink:href="#md6d1ead71f" x="136.320654" y="307.584" style="stroke: #000000; stroke-width: 0.6"/>
      </g>
     </g>
    </g>
    <g id="xtick_18">
     <g id="line2d_18">
      <g>
       <use xlink:href="#md6d1ead71f" x="140.831391" y="307.584" style="stroke: #000000; stroke-width: 0.6"/>
      </g>
     </g>
    </g>
    <g id="xtick_19">
     <g id="line2d_19">
      <g>
       <use xlink:href="#md6d1ead71f" x="144.645164" y="307.584" style="stroke: #000000; stroke-width: 0.6"/>
      </g>
     </g>
    </g>
    <g id="xtick_20">
     <g id="line2d_20">
      <g>
       <use xlink:href="#md6d1ead71f" x="147.948805" y="307.584" style="stroke: #000000; stroke-width: 0.6"/>
      </g>
     </g>
    </g>
    <g id="xtick_21">
     <g id="line2d_21">
      <g>
       <use xlink:href="#md6d1ead71f" x="150.862822" y="307.584" style="stroke: #000000; stroke-width: 0.6"/>
      </g>
     </g>
    </g>
    <g id="xtick_22">
     <g id="line2d_22">
      <g>
       <use xlink:href="#md6d1ead71f" x="170.618345" y="307.584" style="stroke: #000000; stroke-width: 0.6"/>
      </g>
     </g>
    </g>
    <g id="xtick_23">
     <g id="line2d_23">
      <g>
       <use xlink:href="#md6d1ead71f" x="180.649777" y="307.584" style="stroke: #000000; stroke-width: 0.6"/>
      </g>
     </g>
    </g>
    <g id="xtick_24">
     <g id="line2d_24">
      <g>
       <use xlink:href="#md6d1ead71f" x="187.767191" y="307.584" style="stroke: #000000; stroke-width: 0.6"/>
      </g>
     </g>
    </g>
    <g id="xtick_25">
     <g id="line2d_25">
      <g>
       <use xlink:href="#md6d1ead71f" x="193.287886" y="307.584" style="stroke: #000000; stroke-width: 0.6"/>
      </g>
     </g>
    </g>
    <g id="xtick_26">
     <g id="line2d_26">
      <g>
       <use xlink:href="#md6d1ead71f" x="197.798623" y="307.584" style="stroke: #000000; stroke-width: 0.6"/>
      </g>
     </g>
    </g>
    <g id="xtick_27">
     <g id="line2d_27">
      <g>
       <use xlink:href="#md6d1ead71f" x="201.612396" y="307.584" style="stroke: #000000; stroke-width: 0.6"/>
      </g>
     </g>
    </g>
    <g id="xtick_28">
     <g id="line2d_28">
      <g>
       <use xlink:href="#md6d1ead71f" x="204.916036" y="307.584" style="stroke: #000000; stroke-width: 0.6"/>
      </g>
     </g>
    </g>
    <g id="xtick_29">
     <g id="line2d_29">
      <g>
       <use xlink:href="#md6d1ead71f" x="207.830054" y="307.584" style="stroke: #000000; stroke-width: 0.6"/>
      </g>
     </g>
    </g>
    <g id="xtick_30">
     <g id="line2d_30">
      <g>
       <use xlink:href="#md6d1ead71f" x="227.585577" y="307.584" style="stroke: #000000; stroke-width: 0.6"/>
      </g>
     </g>
    </g>
    <g id="xtick_31">
     <g id="line2d_31">
      <g>
       <use xlink:href="#md6d1ead71f" x="237.617009" y="307.584" style="stroke: #000000; stroke-width: 0.6"/>
      </g>
     </g>
    </g>
    <g id="xtick_32">
     <g id="line2d_32">
      <g>
       <use xlink:href="#md6d1ead71f" x="244.734423" y="307.584" style="stroke: #000000; stroke-width: 0.6"/>
      </g>
     </g>
    </g>
    <g id="xtick_33">
     <g id="line2d_33">
      <g>
       <use xlink:href="#md6d1ead71f" x="250.255118" y="307.584" style="stroke: #000000; stroke-width: 0.6"/>
      </g>
     </g>
    </g>
    <g id="xtick_34">
     <g id="line2d_34">
      <g>
       <use xlink:href="#md6d1ead71f" x="254.765854" y="307.584" style="stroke: #000000; stroke-width: 0.6"/>
      </g>
     </g>
    </g>
    <g id="xtick_35">
     <g id="line2d_35">
      <g>
       <use xlink:href="#md6d1ead71f" x="258.579628" y="307.584" style="stroke: #000000; stroke-width: 0.6"/>
      </g>
     </g>
    </g>
    <g id="xtick_36">
     <g id="line2d_36">
      <g>
       <use xlink:href="#md6d1ead71f" x="261.883268" y="307.584" style="stroke: #000000; stroke-width: 0.6"/>
      </g>
     </g>
    </g>
    <g id="xtick_37">
     <g id="line2d_37">
      <g>
       <use xlink:href="#md6d1ead71f" x="264.797286" y="307.584" style="stroke: #000000; stroke-width: 0.6"/>
      </g>
     </g>
    </g>
    <g id="xtick_38">
     <g id="line2d_38">
      <g>
       <use xlink:href="#md6d1ead71f" x="284.552809" y="307.584" style="stroke: #000000; stroke-width: 0.6"/>
      </g>
     </g>
    </g>
    <g id="xtick_39">
     <g id="line2d_39">
      <g>
       <use xlink:href="#md6d1ead71f" x="294.584241" y="307.584" style="stroke: #000000; stroke-width: 0.6"/>
      </g>
     </g>
    </g>
    <g id="xtick_40">
     <g id="line2d_40">
      <g>
       <use xlink:href="#md6d1ead71f" x="301.701655" y="307.584" style="stroke: #000000; stroke-width: 0.6"/>
      </g>
     </g>
    </g>
    <g id="xtick_41">
     <g id="line2d_41">
      <g>
       <use xlink:href="#md6d1ead71f" x="307.22235" y="307.584" style="stroke: #000000; stroke-width: 0.6"/>
      </g>
     </g>
    </g>
    <g id="xtick_42">
     <g id="line2d_42">
      <g>
       <use xlink:href="#md6d1ead71f" x="311.733086" y="307.584" style="stroke: #000000; stroke-width: 0.6"/>
      </g>
     </g>
    </g>
    <g id="xtick_43">
     <g id="line2d_43">
      <g>
       <use xlink:href="#md6d1ead71f" x="315.546859" y="307.584" style="stroke: #000000; stroke-width: 0.6"/>
      </g>
     </g>
    </g>
    <g id="xtick_44">
     <g id="line2d_44">
      <g>
       <use xlink:href="#md6d1ead71f" x="318.8505" y="307.584" style="stroke: #000000; stroke-width: 0.6"/>
      </g>
     </g>
    </g>
    <g id="xtick_45">
     <g id="line2d_45">
      <g>
       <use xlink:href="#md6d1ead71f" x="321.764518" y="307.584" style="stroke: #000000; stroke-width: 0.6"/>
      </g>
     </g>
    </g>
    <g id="xtick_46">
     <g id="line2d_46">
      <g>
       <use xlink:href="#md6d1ead71f" x="341.520041" y="307.584" style="stroke: #000000; stroke-width: 0.6"/>
      </g>
     </g>
    </g>
    <g id="xtick_47">
     <g id="line2d_47">
      <g>
       <use xlink:href="#md6d1ead71f" x="351.551472" y="307.584" style="stroke: #000000; stroke-width: 0.6"/>
      </g>
     </g>
    </g>
    <g id="xtick_48">
     <g id="line2d_48">
      <g>
       <use xlink:href="#md6d1ead71f" x="358.668886" y="307.584" style="stroke: #000000; stroke-width: 0.6"/>
      </g>
     </g>
    </g>
    <g id="xtick_49">
     <g id="line2d_49">
      <g>
       <use xlink:href="#md6d1ead71f" x="364.189582" y="307.584" style="stroke: #000000; stroke-width: 0.6"/>
      </g>
     </g>
    </g>
    <g id="xtick_50">
     <g id="line2d_50">
      <g>
       <use xlink:href="#md6d1ead71f" x="368.700318" y="307.584" style="stroke: #000000; stroke-width: 0.6"/>
      </g>
     </g>
    </g>
    <g id="xtick_51">
     <g id="line2d_51">
      <g>
       <use xlink:href="#md6d1ead71f" x="372.514091" y="307.584" style="stroke: #000000; stroke-width: 0.6"/>
      </g>
     </g>
    </g>
    <g id="xtick_52">
     <g id="line2d_52">
      <g>
       <use xlink:href="#md6d1ead71f" x="375.817732" y="307.584" style="stroke: #000000; stroke-width: 0.6"/>
      </g>
     </g>
    </g>
    <g id="xtick_53">
     <g id="line2d_53">
      <g>
       <use xlink:href="#md6d1ead71f" x="378.73175" y="307.584" style="stroke: #000000; stroke-width: 0.6"/>
      </g>
     </g>
    </g>
    <g id="xtick_54">
     <g id="line2d_54">
      <g>
       <use xlink:href="#md6d1ead71f" x="398.487273" y="307.584" style="stroke: #000000; stroke-width: 0.6"/>
      </g>
     </g>
    </g>
    <g id="xtick_55">
     <g id="line2d_55">
      <g>
       <use xlink:href="#md6d1ead71f" x="408.518704" y="307.584" style="stroke: #000000; stroke-width: 0.6"/>
      </g>
     </g>
    </g>
   </g>
   <g id="matplotlib.axis_2">
    <g id="ytick_1">
     <g id="line2d_56">
      <defs>
       <path id="m1d639e34a4" d="M 0 0 
L -3.5 0 
" style="stroke: #000000; stroke-width: 0.8"/>
      </defs>
      <g>
       <use xlink:href="#m1d639e34a4" x="57.6" y="295.489254" style="stroke: #000000; stroke-width: 0.8"/>
      </g>
     </g>
     <g id="text_7">
      <!-- 0 -->
      <g transform="translate(44.2375 299.288473) scale(0.1 -0.1)">
       <use xlink:href="#DejaVuSans-30"/>
      </g>
     </g>
    </g>
    <g id="ytick_2">
     <g id="line2d_57">
      <g>
       <use xlink:href="#m1d639e34a4" x="57.6" y="250.689022" style="stroke: #000000; stroke-width: 0.8"/>
      </g>
     </g>
     <g id="text_8">
      <!-- 1 -->
      <g transform="translate(44.2375 254.488241) scale(0.1 -0.1)">
       <use xlink:href="#DejaVuSans-31"/>
      </g>
     </g>
    </g>
    <g id="ytick_3">
     <g id="line2d_58">
      <g>
       <use xlink:href="#m1d639e34a4" x="57.6" y="205.88879" style="stroke: #000000; stroke-width: 0.8"/>
      </g>
     </g>
     <g id="text_9">
      <!-- 2 -->
      <g transform="translate(44.2375 209.688009) scale(0.1 -0.1)">
       <use xlink:href="#DejaVuSans-32"/>
      </g>
     </g>
    </g>
    <g id="ytick_4">
     <g id="line2d_59">
      <g>
       <use xlink:href="#m1d639e34a4" x="57.6" y="161.088558" style="stroke: #000000; stroke-width: 0.8"/>
      </g>
     </g>
     <g id="text_10">
      <!-- 3 -->
      <g transform="translate(44.2375 164.887776) scale(0.1 -0.1)">
       <use xlink:href="#DejaVuSans-33"/>
      </g>
     </g>
    </g>
    <g id="ytick_5">
     <g id="line2d_60">
      <g>
       <use xlink:href="#m1d639e34a4" x="57.6" y="116.288325" style="stroke: #000000; stroke-width: 0.8"/>
      </g>
     </g>
     <g id="text_11">
      <!-- 4 -->
      <g transform="translate(44.2375 120.087544) scale(0.1 -0.1)">
       <use xlink:href="#DejaVuSans-34"/>
      </g>
     </g>
    </g>
    <g id="ytick_6">
     <g id="line2d_61">
      <g>
       <use xlink:href="#m1d639e34a4" x="57.6" y="71.488093" style="stroke: #000000; stroke-width: 0.8"/>
      </g>
     </g>
     <g id="text_12">
      <!-- 5 -->
      <g transform="translate(44.2375 75.287312) scale(0.1 -0.1)">
       <use xlink:href="#DejaVuSans-35"/>
      </g>
     </g>
    </g>
    <g id="text_13">
     <!-- 1e7 -->
     <g transform="translate(57.6 38.472) scale(0.1 -0.1)">
      <defs>
       <path id="DejaVuSans-65" d="M 3597 1894 
L 3597 1613 
L 953 1613 
Q 991 1019 1311 708 
Q 1631 397 2203 397 
Q 2534 397 2845 478 
Q 3156 559 3463 722 
L 3463 178 
Q 3153 47 2828 -22 
Q 2503 -91 2169 -91 
Q 1331 -91 842 396 
Q 353 884 353 1716 
Q 353 2575 817 3079 
Q 1281 3584 2069 3584 
Q 2775 3584 3186 3129 
Q 3597 2675 3597 1894 
z
M 3022 2063 
Q 3016 2534 2758 2815 
Q 2500 3097 2075 3097 
Q 1594 3097 1305 2825 
Q 1016 2553 972 2059 
L 3022 2063 
z
" transform="scale(0.015625)"/>
       <path id="DejaVuSans-37" d="M 525 4666 
L 3525 4666 
L 3525 4397 
L 1831 0 
L 1172 0 
L 2766 4134 
L 525 4134 
L 525 4666 
z
" transform="scale(0.015625)"/>
      </defs>
      <use xlink:href="#DejaVuSans-31"/>
      <use xlink:href="#DejaVuSans-65" x="63.623047"/>
      <use xlink:href="#DejaVuSans-37" x="125.146484"/>
     </g>
    </g>
   </g>
   <g id="LineCollection_1">
    <path d="M 73.832727 293.348924 
L 73.832727 293.036173 
" clip-path="url(#p94b7e18f91)" style="fill: none; stroke: #1f77b4; stroke-width: 1.5"/>
    <path d="M 90.981573 291.588104 
L 90.981573 291.053693 
" clip-path="url(#p94b7e18f91)" style="fill: none; stroke: #1f77b4; stroke-width: 1.5"/>
    <path d="M 108.130418 288.739611 
L 108.130418 287.770186 
" clip-path="url(#p94b7e18f91)" style="fill: none; stroke: #1f77b4; stroke-width: 1.5"/>
    <path d="M 153.4695 275.783057 
L 153.4695 266.361831 
" clip-path="url(#p94b7e18f91)" style="fill: none; stroke: #1f77b4; stroke-width: 1.5"/>
    <path d="M 170.618345 273.214123 
L 170.618345 264.327254 
" clip-path="url(#p94b7e18f91)" style="fill: none; stroke: #1f77b4; stroke-width: 1.5"/>
    <path d="M 210.436732 271.118409 
L 210.436732 261.70137 
" clip-path="url(#p94b7e18f91)" style="fill: none; stroke: #1f77b4; stroke-width: 1.5"/>
    <path d="M 227.585577 267.033646 
L 227.585577 262.031886 
" clip-path="url(#p94b7e18f91)" style="fill: none; stroke: #1f77b4; stroke-width: 1.5"/>
    <path d="M 267.403964 267.682214 
L 267.403964 262.655208 
" clip-path="url(#p94b7e18f91)" style="fill: none; stroke: #1f77b4; stroke-width: 1.5"/>
    <path d="M 284.552809 268.980241 
L 284.552809 265.918144 
" clip-path="url(#p94b7e18f91)" style="fill: none; stroke: #1f77b4; stroke-width: 1.5"/>
    <path d="M 324.371195 277.343346 
L 324.371195 274.065126 
" clip-path="url(#p94b7e18f91)" style="fill: none; stroke: #1f77b4; stroke-width: 1.5"/>
    <path d="M 341.520041 295.488 
L 341.520041 295.488 
" clip-path="url(#p94b7e18f91)" style="fill: none; stroke: #1f77b4; stroke-width: 1.5"/>
    <path d="M 381.338427 295.484416 
L 381.338427 295.484416 
" clip-path="url(#p94b7e18f91)" style="fill: none; stroke: #1f77b4; stroke-width: 1.5"/>
    <path d="M 398.487273 295.479936 
L 398.487273 295.479936 
" clip-path="url(#p94b7e18f91)" style="fill: none; stroke: #1f77b4; stroke-width: 1.5"/>
   </g>
   <g id="LineCollection_2">
    <path d="M 73.832727 277.230478 
L 73.832727 255.797142 
" clip-path="url(#p94b7e18f91)" style="fill: none; stroke: #ff7f0e; stroke-width: 1.5"/>
    <path d="M 90.981573 267.086901 
L 90.981573 226.158945 
" clip-path="url(#p94b7e18f91)" style="fill: none; stroke: #ff7f0e; stroke-width: 1.5"/>
    <path d="M 108.130418 242.382063 
L 108.130418 190.978019 
" clip-path="url(#p94b7e18f91)" style="fill: none; stroke: #ff7f0e; stroke-width: 1.5"/>
    <path d="M 153.4695 165.940568 
L 153.4695 100.462156 
" clip-path="url(#p94b7e18f91)" style="fill: none; stroke: #ff7f0e; stroke-width: 1.5"/>
    <path d="M 170.618345 139.949054 
L 170.618345 75.061118 
" clip-path="url(#p94b7e18f91)" style="fill: none; stroke: #ff7f0e; stroke-width: 1.5"/>
    <path d="M 210.436732 110.345437 
L 210.436732 53.568 
" clip-path="url(#p94b7e18f91)" style="fill: none; stroke: #ff7f0e; stroke-width: 1.5"/>
    <path d="M 227.585577 122.205337 
L 227.585577 53.803791 
" clip-path="url(#p94b7e18f91)" style="fill: none; stroke: #ff7f0e; stroke-width: 1.5"/>
    <path d="M 267.403964 107.953398 
L 267.403964 71.488093 
" clip-path="url(#p94b7e18f91)" style="fill: none; stroke: #ff7f0e; stroke-width: 1.5"/>
    <path d="M 284.552809 111.126159 
L 284.552809 79.063011 
" clip-path="url(#p94b7e18f91)" style="fill: none; stroke: #ff7f0e; stroke-width: 1.5"/>
    <path d="M 324.371195 116.288325 
L 324.371195 87.116081 
" clip-path="url(#p94b7e18f91)" style="fill: none; stroke: #ff7f0e; stroke-width: 1.5"/>
    <path d="M 341.520041 121.023816 
L 341.520041 91.851835 
" clip-path="url(#p94b7e18f91)" style="fill: none; stroke: #ff7f0e; stroke-width: 1.5"/>
    <path d="M 381.338427 116.949583 
L 381.338427 87.56381 
" clip-path="url(#p94b7e18f91)" style="fill: none; stroke: #ff7f0e; stroke-width: 1.5"/>
    <path d="M 398.487273 112.019116 
L 398.487273 89.511175 
" clip-path="url(#p94b7e18f91)" style="fill: none; stroke: #ff7f0e; stroke-width: 1.5"/>
   </g>
   <g id="LineCollection_3">
    <path d="M 73.832727 272.469359 
L 73.832727 269.924363 
" clip-path="url(#p94b7e18f91)" style="fill: none; stroke: #2ca02c; stroke-width: 1.5"/>
    <path d="M 90.981573 271.368279 
L 90.981573 269.590577 
" clip-path="url(#p94b7e18f91)" style="fill: none; stroke: #2ca02c; stroke-width: 1.5"/>
    <path d="M 108.130418 270.817985 
L 108.130418 269.606688 
" clip-path="url(#p94b7e18f91)" style="fill: none; stroke: #2ca02c; stroke-width: 1.5"/>
    <path d="M 153.4695 274.841967 
L 153.4695 274.14185 
" clip-path="url(#p94b7e18f91)" style="fill: none; stroke: #2ca02c; stroke-width: 1.5"/>
    <path d="M 170.618345 275.235711 
L 170.618345 274.153277 
" clip-path="url(#p94b7e18f91)" style="fill: none; stroke: #2ca02c; stroke-width: 1.5"/>
    <path d="M 210.436732 275.648802 
L 210.436732 274.58592 
" clip-path="url(#p94b7e18f91)" style="fill: none; stroke: #2ca02c; stroke-width: 1.5"/>
    <path d="M 227.585577 276.415428 
L 227.585577 275.545611 
" clip-path="url(#p94b7e18f91)" style="fill: none; stroke: #2ca02c; stroke-width: 1.5"/>
    <path d="M 267.403964 279.963567 
L 267.403964 277.843649 
" clip-path="url(#p94b7e18f91)" style="fill: none; stroke: #2ca02c; stroke-width: 1.5"/>
    <path d="M 284.552809 283.328496 
L 284.552809 281.86388 
" clip-path="url(#p94b7e18f91)" style="fill: none; stroke: #2ca02c; stroke-width: 1.5"/>
    <path d="M 324.371195 285.28419 
L 324.371195 284.735765 
" clip-path="url(#p94b7e18f91)" style="fill: none; stroke: #2ca02c; stroke-width: 1.5"/>
    <path d="M 341.520041 285.299112 
L 341.520041 284.766915 
" clip-path="url(#p94b7e18f91)" style="fill: none; stroke: #2ca02c; stroke-width: 1.5"/>
    <path d="M 381.338427 285.323642 
L 381.338427 284.946186 
" clip-path="url(#p94b7e18f91)" style="fill: none; stroke: #2ca02c; stroke-width: 1.5"/>
    <path d="M 398.487273 285.471464 
L 398.487273 285.122061 
" clip-path="url(#p94b7e18f91)" style="fill: none; stroke: #2ca02c; stroke-width: 1.5"/>
   </g>
   <g id="LineCollection_4">
    <path d="M 73.832727 258.27017 
L 73.832727 253.764018 
" clip-path="url(#p94b7e18f91)" style="fill: none; stroke: #d62728; stroke-width: 1.5"/>
    <path d="M 90.981573 258.074046 
L 90.981573 253.517627 
" clip-path="url(#p94b7e18f91)" style="fill: none; stroke: #d62728; stroke-width: 1.5"/>
    <path d="M 108.130418 257.595646 
L 108.130418 253.806285 
" clip-path="url(#p94b7e18f91)" style="fill: none; stroke: #d62728; stroke-width: 1.5"/>
    <path d="M 153.4695 256.483835 
L 153.4695 253.469364 
" clip-path="url(#p94b7e18f91)" style="fill: none; stroke: #d62728; stroke-width: 1.5"/>
    <path d="M 170.618345 264.884666 
L 170.618345 259.915209 
" clip-path="url(#p94b7e18f91)" style="fill: none; stroke: #d62728; stroke-width: 1.5"/>
    <path d="M 210.436732 222.031384 
L 210.436732 186.841984 
" clip-path="url(#p94b7e18f91)" style="fill: none; stroke: #d62728; stroke-width: 1.5"/>
    <path d="M 227.585577 185.50066 
L 227.585577 126.198054 
" clip-path="url(#p94b7e18f91)" style="fill: none; stroke: #d62728; stroke-width: 1.5"/>
    <path d="M 267.403964 197.386556 
L 267.403964 143.909521 
" clip-path="url(#p94b7e18f91)" style="fill: none; stroke: #d62728; stroke-width: 1.5"/>
    <path d="M 284.552809 186.220395 
L 284.552809 131.385839 
" clip-path="url(#p94b7e18f91)" style="fill: none; stroke: #d62728; stroke-width: 1.5"/>
    <path d="M 324.371195 195.810122 
L 324.371195 137.060142 
" clip-path="url(#p94b7e18f91)" style="fill: none; stroke: #d62728; stroke-width: 1.5"/>
    <path d="M 341.520041 183.388584 
L 341.520041 135.488425 
" clip-path="url(#p94b7e18f91)" style="fill: none; stroke: #d62728; stroke-width: 1.5"/>
    <path d="M 381.338427 179.903371 
L 381.338427 141.497367 
" clip-path="url(#p94b7e18f91)" style="fill: none; stroke: #d62728; stroke-width: 1.5"/>
    <path d="M 398.487273 175.158052 
L 398.487273 144.068255 
" clip-path="url(#p94b7e18f91)" style="fill: none; stroke: #d62728; stroke-width: 1.5"/>
   </g>
   <g id="LineCollection_5">
    <path d="M 73.832727 262.116836 
L 73.832727 258.652689 
" clip-path="url(#p94b7e18f91)" style="fill: none; stroke: #9467bd; stroke-width: 1.5"/>
    <path d="M 90.981573 262.844655 
L 90.981573 258.688669 
" clip-path="url(#p94b7e18f91)" style="fill: none; stroke: #9467bd; stroke-width: 1.5"/>
    <path d="M 108.130418 261.70287 
L 108.130418 258.872958 
" clip-path="url(#p94b7e18f91)" style="fill: none; stroke: #9467bd; stroke-width: 1.5"/>
    <path d="M 153.4695 264.739481 
L 153.4695 258.983673 
" clip-path="url(#p94b7e18f91)" style="fill: none; stroke: #9467bd; stroke-width: 1.5"/>
    <path d="M 170.618345 266.46681 
L 170.618345 262.944158 
" clip-path="url(#p94b7e18f91)" style="fill: none; stroke: #9467bd; stroke-width: 1.5"/>
    <path d="M 210.436732 223.057741 
L 210.436732 189.07228 
" clip-path="url(#p94b7e18f91)" style="fill: none; stroke: #9467bd; stroke-width: 1.5"/>
    <path d="M 227.585577 186.8023 
L 227.585577 135.766687 
" clip-path="url(#p94b7e18f91)" style="fill: none; stroke: #9467bd; stroke-width: 1.5"/>
    <path d="M 267.403964 194.182196 
L 267.403964 146.706195 
" clip-path="url(#p94b7e18f91)" style="fill: none; stroke: #9467bd; stroke-width: 1.5"/>
    <path d="M 284.552809 188.567459 
L 284.552809 138.845086 
" clip-path="url(#p94b7e18f91)" style="fill: none; stroke: #9467bd; stroke-width: 1.5"/>
    <path d="M 324.371195 188.111867 
L 324.371195 143.337522 
" clip-path="url(#p94b7e18f91)" style="fill: none; stroke: #9467bd; stroke-width: 1.5"/>
    <path d="M 341.520041 182.682914 
L 341.520041 145.798741 
" clip-path="url(#p94b7e18f91)" style="fill: none; stroke: #9467bd; stroke-width: 1.5"/>
    <path d="M 381.338427 179.54329 
L 381.338427 160.751714 
" clip-path="url(#p94b7e18f91)" style="fill: none; stroke: #9467bd; stroke-width: 1.5"/>
    <path d="M 398.487273 174.34458 
L 398.487273 162.842303 
" clip-path="url(#p94b7e18f91)" style="fill: none; stroke: #9467bd; stroke-width: 1.5"/>
   </g>
   <g id="LineCollection_6">
    <path d="M 73.832727 277.928266 
L 73.832727 276.918281 
" clip-path="url(#p94b7e18f91)" style="fill: none; stroke: #8c564b; stroke-width: 1.5"/>
    <path d="M 90.981573 278.621598 
L 90.981573 276.311207 
" clip-path="url(#p94b7e18f91)" style="fill: none; stroke: #8c564b; stroke-width: 1.5"/>
    <path d="M 108.130418 277.690171 
L 108.130418 276.592389 
" clip-path="url(#p94b7e18f91)" style="fill: none; stroke: #8c564b; stroke-width: 1.5"/>
    <path d="M 153.4695 277.573635 
L 153.4695 276.360797 
" clip-path="url(#p94b7e18f91)" style="fill: none; stroke: #8c564b; stroke-width: 1.5"/>
    <path d="M 170.618345 274.828078 
L 170.618345 272.338619 
" clip-path="url(#p94b7e18f91)" style="fill: none; stroke: #8c564b; stroke-width: 1.5"/>
    <path d="M 210.436732 243.425857 
L 210.436732 220.046036 
" clip-path="url(#p94b7e18f91)" style="fill: none; stroke: #8c564b; stroke-width: 1.5"/>
    <path d="M 227.585577 209.857109 
L 227.585577 175.042728 
" clip-path="url(#p94b7e18f91)" style="fill: none; stroke: #8c564b; stroke-width: 1.5"/>
    <path d="M 267.403964 213.203113 
L 267.403964 195.190227 
" clip-path="url(#p94b7e18f91)" style="fill: none; stroke: #8c564b; stroke-width: 1.5"/>
    <path d="M 284.552809 212.217447 
L 284.552809 190.570678 
" clip-path="url(#p94b7e18f91)" style="fill: none; stroke: #8c564b; stroke-width: 1.5"/>
    <path d="M 324.371195 262.946713 
L 324.371195 249.329885 
" clip-path="url(#p94b7e18f91)" style="fill: none; stroke: #8c564b; stroke-width: 1.5"/>
    <path d="M 341.520041 268.419628 
L 341.520041 262.642789 
" clip-path="url(#p94b7e18f91)" style="fill: none; stroke: #8c564b; stroke-width: 1.5"/>
    <path d="M 381.338427 274.051837 
L 381.338427 272.893518 
" clip-path="url(#p94b7e18f91)" style="fill: none; stroke: #8c564b; stroke-width: 1.5"/>
    <path d="M 398.487273 295.479936 
L 398.487273 295.479936 
" clip-path="url(#p94b7e18f91)" style="fill: none; stroke: #8c564b; stroke-width: 1.5"/>
   </g>
   <g id="LineCollection_7">
    <path d="M 73.832727 258.036822 
L 73.832727 253.617785 
" clip-path="url(#p94b7e18f91)" style="fill: none; stroke: #e377c2; stroke-width: 1.5"/>
    <path d="M 90.981573 257.559339 
L 90.981573 253.468422 
" clip-path="url(#p94b7e18f91)" style="fill: none; stroke: #e377c2; stroke-width: 1.5"/>
    <path d="M 108.130418 261.861343 
L 108.130418 253.562525 
" clip-path="url(#p94b7e18f91)" style="fill: none; stroke: #e377c2; stroke-width: 1.5"/>
    <path d="M 153.4695 257.595922 
L 153.4695 253.420103 
" clip-path="url(#p94b7e18f91)" style="fill: none; stroke: #e377c2; stroke-width: 1.5"/>
    <path d="M 170.618345 255.875378 
L 170.618345 253.367582 
" clip-path="url(#p94b7e18f91)" style="fill: none; stroke: #e377c2; stroke-width: 1.5"/>
    <path d="M 210.436732 256.966762 
L 210.436732 253.440369 
" clip-path="url(#p94b7e18f91)" style="fill: none; stroke: #e377c2; stroke-width: 1.5"/>
    <path d="M 227.585577 255.688398 
L 227.585577 253.457 
" clip-path="url(#p94b7e18f91)" style="fill: none; stroke: #e377c2; stroke-width: 1.5"/>
    <path d="M 267.403964 261.861057 
L 267.403964 253.964837 
" clip-path="url(#p94b7e18f91)" style="fill: none; stroke: #e377c2; stroke-width: 1.5"/>
    <path d="M 284.552809 257.968122 
L 284.552809 254.160627 
" clip-path="url(#p94b7e18f91)" style="fill: none; stroke: #e377c2; stroke-width: 1.5"/>
    <path d="M 324.371195 258.396146 
L 324.371195 255.108474 
" clip-path="url(#p94b7e18f91)" style="fill: none; stroke: #e377c2; stroke-width: 1.5"/>
    <path d="M 341.520041 257.683151 
L 341.520041 255.742534 
" clip-path="url(#p94b7e18f91)" style="fill: none; stroke: #e377c2; stroke-width: 1.5"/>
    <path d="M 381.338427 258.230475 
L 381.338427 256.94528 
" clip-path="url(#p94b7e18f91)" style="fill: none; stroke: #e377c2; stroke-width: 1.5"/>
    <path d="M 398.487273 258.011583 
L 398.487273 256.717313 
" clip-path="url(#p94b7e18f91)" style="fill: none; stroke: #e377c2; stroke-width: 1.5"/>
   </g>
   <g id="line2d_62">
    <path d="M 73.832727 293.184788 
L 90.981573 291.364108 
L 108.130418 288.27572 
L 153.4695 271.06859 
L 170.618345 268.740802 
L 210.436732 265.926671 
L 227.585577 264.676116 
L 267.403964 265.497112 
L 284.552809 267.345858 
L 324.371195 274.73871 
L 341.520041 295.488 
L 381.338427 295.484416 
L 398.487273 295.479936 
" clip-path="url(#p94b7e18f91)" style="fill: none; stroke: #1f77b4; stroke-width: 1.5; stroke-linecap: square"/>
   </g>
   <g id="line2d_63">
    <path d="M 73.832727 262.67154 
L 90.981573 249.400315 
L 108.130418 219.728527 
L 153.4695 134.32052 
L 170.618345 115.210292 
L 210.436732 88.617565 
L 227.585577 84.822142 
L 267.403964 91.836776 
L 284.552809 93.879028 
L 324.371195 103.939331 
L 341.520041 108.678435 
L 381.338427 103.527622 
L 398.487273 98.944075 
" clip-path="url(#p94b7e18f91)" style="fill: none; stroke: #ff7f0e; stroke-width: 1.5; stroke-linecap: square"/>
   </g>
   <g id="line2d_64">
    <path d="M 73.832727 270.368291 
L 90.981573 269.995241 
L 108.130418 269.956324 
L 153.4695 274.433758 
L 170.618345 274.415577 
L 210.436732 274.983128 
L 227.585577 275.831559 
L 267.403964 278.6262 
L 284.552809 282.705771 
L 324.371195 284.988602 
L 341.520041 285.025041 
L 381.338427 285.14323 
L 398.487273 285.310757 
" clip-path="url(#p94b7e18f91)" style="fill: none; stroke: #2ca02c; stroke-width: 1.5; stroke-linecap: square"/>
   </g>
   <g id="line2d_65">
    <path d="M 73.832727 254.681518 
L 90.981573 254.316608 
L 108.130418 254.70875 
L 153.4695 254.227472 
L 170.618345 262.673695 
L 210.436732 204.738508 
L 227.585577 158.676248 
L 267.403964 170.631631 
L 284.552809 160.933167 
L 324.371195 163.178407 
L 341.520041 159.498927 
L 381.338427 160.689923 
L 398.487273 160.123693 
" clip-path="url(#p94b7e18f91)" style="fill: none; stroke: #d62728; stroke-width: 1.5; stroke-linecap: square"/>
   </g>
   <g id="line2d_66">
    <path d="M 73.832727 259.464987 
L 90.981573 259.454407 
L 108.130418 259.615511 
L 153.4695 259.704924 
L 170.618345 264.570145 
L 210.436732 208.383924 
L 227.585577 164.795731 
L 267.403964 175.658986 
L 284.552809 166.392058 
L 324.371195 168.981922 
L 341.520041 168.257119 
L 381.338427 168.621358 
L 398.487273 168.153571 
" clip-path="url(#p94b7e18f91)" style="fill: none; stroke: #9467bd; stroke-width: 1.5; stroke-linecap: square"/>
   </g>
   <g id="line2d_67">
    <path d="M 73.832727 277.269806 
L 90.981573 276.714642 
L 108.130418 276.918231 
L 153.4695 276.723257 
L 170.618345 273.452711 
L 210.436732 229.020716 
L 227.585577 194.374471 
L 267.403964 205.238961 
L 284.552809 201.528461 
L 324.371195 253.500757 
L 341.520041 264.861518 
L 381.338427 273.510902 
L 398.487273 295.479936 
" clip-path="url(#p94b7e18f91)" style="fill: none; stroke: #8c564b; stroke-width: 1.5; stroke-linecap: square"/>
   </g>
   <g id="line2d_68">
    <path d="M 73.832727 254.501103 
L 90.981573 254.423014 
L 108.130418 254.390585 
L 153.4695 254.347201 
L 170.618345 254.049502 
L 210.436732 254.274614 
L 227.585577 254.14614 
L 267.403964 255.028882 
L 284.552809 255.137674 
L 324.371195 256.118255 
L 341.520041 256.479507 
L 381.338427 257.544477 
L 398.487273 257.252684 
" clip-path="url(#p94b7e18f91)" style="fill: none; stroke: #e377c2; stroke-width: 1.5; stroke-linecap: square"/>
   </g>
   <g id="patch_3">
    <path d="M 57.6 307.584 
L 57.6 41.472 
" style="fill: none; stroke: #000000; stroke-width: 0.8; stroke-linejoin: miter; stroke-linecap: square"/>
   </g>
   <g id="patch_4">
    <path d="M 414.72 307.584 
L 414.72 41.472 
" style="fill: none; stroke: #000000; stroke-width: 0.8; stroke-linejoin: miter; stroke-linecap: square"/>
   </g>
   <g id="patch_5">
    <path d="M 57.6 307.584 
L 414.72 307.584 
" style="fill: none; stroke: #000000; stroke-width: 0.8; stroke-linejoin: miter; stroke-linecap: square"/>
   </g>
   <g id="patch_6">
    <path d="M 57.6 41.472 
L 414.72 41.472 
" style="fill: none; stroke: #000000; stroke-width: 0.8; stroke-linejoin: miter; stroke-linecap: square"/>
   </g>
   <g id="legend_1">
    <g id="patch_7">
     <path d="M 64.6 152.218875 
L 126.65 152.218875 
Q 128.65 152.218875 128.65 150.218875 
L 128.65 48.472 
Q 128.65 46.472 126.65 46.472 
L 64.6 46.472 
Q 62.6 46.472 62.6 48.472 
L 62.6 150.218875 
Q 62.6 152.218875 64.6 152.218875 
z
" style="fill: #ffffff; opacity: 0.8; stroke: #cccccc; stroke-linejoin: miter"/>
    </g>
    <g id="LineCollection_8">
     <path d="M 76.6 59.570438 
L 76.6 49.570438 
" style="fill: none; stroke: #1f77b4; stroke-width: 1.5"/>
    </g>
    <g id="line2d_69">
     <path d="M 66.6 54.570438 
L 86.6 54.570438 
" style="fill: none; stroke: #1f77b4; stroke-width: 1.5; stroke-linecap: square"/>
    </g>
    <g id="line2d_70"/>
    <g id="text_14">
     <!-- POSIX -->
     <g transform="translate(94.6 58.070438) scale(0.1 -0.1)">
      <defs>
       <path id="DejaVuSans-50" d="M 1259 4147 
L 1259 2394 
L 2053 2394 
Q 2494 2394 2734 2622 
Q 2975 2850 2975 3272 
Q 2975 3691 2734 3919 
Q 2494 4147 2053 4147 
L 1259 4147 
z
M 628 4666 
L 2053 4666 
Q 2838 4666 3239 4311 
Q 3641 3956 3641 3272 
Q 3641 2581 3239 2228 
Q 2838 1875 2053 1875 
L 1259 1875 
L 1259 0 
L 628 0 
L 628 4666 
z
" transform="scale(0.015625)"/>
       <path id="DejaVuSans-4f" d="M 2522 4238 
Q 1834 4238 1429 3725 
Q 1025 3213 1025 2328 
Q 1025 1447 1429 934 
Q 1834 422 2522 422 
Q 3209 422 3611 934 
Q 4013 1447 4013 2328 
Q 4013 3213 3611 3725 
Q 3209 4238 2522 4238 
z
M 2522 4750 
Q 3503 4750 4090 4092 
Q 4678 3434 4678 2328 
Q 4678 1225 4090 567 
Q 3503 -91 2522 -91 
Q 1538 -91 948 565 
Q 359 1222 359 2328 
Q 359 3434 948 4092 
Q 1538 4750 2522 4750 
z
" transform="scale(0.015625)"/>
       <path id="DejaVuSans-53" d="M 3425 4513 
L 3425 3897 
Q 3066 4069 2747 4153 
Q 2428 4238 2131 4238 
Q 1616 4238 1336 4038 
Q 1056 3838 1056 3469 
Q 1056 3159 1242 3001 
Q 1428 2844 1947 2747 
L 2328 2669 
Q 3034 2534 3370 2195 
Q 3706 1856 3706 1288 
Q 3706 609 3251 259 
Q 2797 -91 1919 -91 
Q 1588 -91 1214 -16 
Q 841 59 441 206 
L 441 856 
Q 825 641 1194 531 
Q 1563 422 1919 422 
Q 2459 422 2753 634 
Q 3047 847 3047 1241 
Q 3047 1584 2836 1778 
Q 2625 1972 2144 2069 
L 1759 2144 
Q 1053 2284 737 2584 
Q 422 2884 422 3419 
Q 422 4038 858 4394 
Q 1294 4750 2059 4750 
Q 2388 4750 2728 4690 
Q 3069 4631 3425 4513 
z
" transform="scale(0.015625)"/>
       <path id="DejaVuSans-49" d="M 628 4666 
L 1259 4666 
L 1259 0 
L 628 0 
L 628 4666 
z
" transform="scale(0.015625)"/>
       <path id="DejaVuSans-58" d="M 403 4666 
L 1081 4666 
L 2241 2931 
L 3406 4666 
L 4084 4666 
L 2584 2425 
L 4184 0 
L 3506 0 
L 2194 1984 
L 872 0 
L 191 0 
L 1856 2491 
L 403 4666 
z
" transform="scale(0.015625)"/>
      </defs>
      <use xlink:href="#DejaVuSans-50"/>
      <use xlink:href="#DejaVuSans-4f" x="60.302734"/>
      <use xlink:href="#DejaVuSans-53" x="139.013672"/>
      <use xlink:href="#DejaVuSans-49" x="202.490234"/>
      <use xlink:href="#DejaVuSans-58" x="231.982422"/>
     </g>
    </g>
    <g id="LineCollection_9">
     <path d="M 76.6 74.248563 
L 76.6 64.248563 
" style="fill: none; stroke: #ff7f0e; stroke-width: 1.5"/>
    </g>
    <g id="line2d_71">
     <path d="M 66.6 69.248563 
L 86.6 69.248563 
" style="fill: none; stroke: #ff7f0e; stroke-width: 1.5; stroke-linecap: square"/>
    </g>
    <g id="line2d_72"/>
    <g id="text_15">
     <!-- GO -->
     <g transform="translate(94.6 72.748563) scale(0.1 -0.1)">
      <defs>
       <path id="DejaVuSans-47" d="M 3809 666 
L 3809 1919 
L 2778 1919 
L 2778 2438 
L 4434 2438 
L 4434 434 
Q 4069 175 3628 42 
Q 3188 -91 2688 -91 
Q 1594 -91 976 548 
Q 359 1188 359 2328 
Q 359 3472 976 4111 
Q 1594 4750 2688 4750 
Q 3144 4750 3555 4637 
Q 3966 4525 4313 4306 
L 4313 3634 
Q 3963 3931 3569 4081 
Q 3175 4231 2741 4231 
Q 1884 4231 1454 3753 
Q 1025 3275 1025 2328 
Q 1025 1384 1454 906 
Q 1884 428 2741 428 
Q 3075 428 3337 486 
Q 3600 544 3809 666 
z
" transform="scale(0.015625)"/>
      </defs>
      <use xlink:href="#DejaVuSans-47"/>
      <use xlink:href="#DejaVuSans-4f" x="77.490234"/>
     </g>
    </g>
    <g id="LineCollection_10">
     <path d="M 76.6 88.926688 
L 76.6 78.926688 
" style="fill: none; stroke: #2ca02c; stroke-width: 1.5"/>
    </g>
    <g id="line2d_73">
     <path d="M 66.6 83.926688 
L 86.6 83.926688 
" style="fill: none; stroke: #2ca02c; stroke-width: 1.5; stroke-linecap: square"/>
    </g>
    <g id="line2d_74"/>
    <g id="text_16">
     <!-- RUST -->
     <g transform="translate(94.6 87.426688) scale(0.1 -0.1)">
      <defs>
       <path id="DejaVuSans-52" d="M 2841 2188 
Q 3044 2119 3236 1894 
Q 3428 1669 3622 1275 
L 4263 0 
L 3584 0 
L 2988 1197 
Q 2756 1666 2539 1819 
Q 2322 1972 1947 1972 
L 1259 1972 
L 1259 0 
L 628 0 
L 628 4666 
L 2053 4666 
Q 2853 4666 3247 4331 
Q 3641 3997 3641 3322 
Q 3641 2881 3436 2590 
Q 3231 2300 2841 2188 
z
M 1259 4147 
L 1259 2491 
L 2053 2491 
Q 2509 2491 2742 2702 
Q 2975 2913 2975 3322 
Q 2975 3731 2742 3939 
Q 2509 4147 2053 4147 
L 1259 4147 
z
" transform="scale(0.015625)"/>
       <path id="DejaVuSans-55" d="M 556 4666 
L 1191 4666 
L 1191 1831 
Q 1191 1081 1462 751 
Q 1734 422 2344 422 
Q 2950 422 3222 751 
Q 3494 1081 3494 1831 
L 3494 4666 
L 4128 4666 
L 4128 1753 
Q 4128 841 3676 375 
Q 3225 -91 2344 -91 
Q 1459 -91 1007 375 
Q 556 841 556 1753 
L 556 4666 
z
" transform="scale(0.015625)"/>
       <path id="DejaVuSans-54" d="M -19 4666 
L 3928 4666 
L 3928 4134 
L 2272 4134 
L 2272 0 
L 1638 0 
L 1638 4134 
L -19 4134 
L -19 4666 
z
" transform="scale(0.015625)"/>
      </defs>
      <use xlink:href="#DejaVuSans-52"/>
      <use xlink:href="#DejaVuSans-55" x="69.482422"/>
      <use xlink:href="#DejaVuSans-53" x="142.675781"/>
      <use xlink:href="#DejaVuSans-54" x="206.152344"/>
     </g>
    </g>
    <g id="LineCollection_11">
     <path d="M 76.6 103.604813 
L 76.6 93.604813 
" style="fill: none; stroke: #d62728; stroke-width: 1.5"/>
    </g>
    <g id="line2d_75">
     <path d="M 66.6 98.604813 
L 86.6 98.604813 
" style="fill: none; stroke: #d62728; stroke-width: 1.5; stroke-linecap: square"/>
    </g>
    <g id="line2d_76"/>
    <g id="text_17">
     <!-- U -->
     <g transform="translate(94.6 102.104813) scale(0.1 -0.1)">
      <use xlink:href="#DejaVuSans-55"/>
     </g>
    </g>
    <g id="LineCollection_12">
     <path d="M 76.6 118.282938 
L 76.6 108.282938 
" style="fill: none; stroke: #9467bd; stroke-width: 1.5"/>
    </g>
    <g id="line2d_77">
     <path d="M 66.6 113.282938 
L 86.6 113.282938 
" style="fill: none; stroke: #9467bd; stroke-width: 1.5; stroke-linecap: square"/>
    </g>
    <g id="line2d_78"/>
    <g id="text_18">
     <!-- U1K -->
     <g transform="translate(94.6 116.782938) scale(0.1 -0.1)">
      <defs>
       <path id="DejaVuSans-4b" d="M 628 4666 
L 1259 4666 
L 1259 2694 
L 3353 4666 
L 4166 4666 
L 1850 2491 
L 4331 0 
L 3500 0 
L 1259 2247 
L 1259 0 
L 628 0 
L 628 4666 
z
" transform="scale(0.015625)"/>
      </defs>
      <use xlink:href="#DejaVuSans-55"/>
      <use xlink:href="#DejaVuSans-31" x="73.193359"/>
      <use xlink:href="#DejaVuSans-4b" x="136.816406"/>
     </g>
    </g>
    <g id="LineCollection_13">
     <path d="M 76.6 132.961063 
L 76.6 122.961063 
" style="fill: none; stroke: #8c564b; stroke-width: 1.5"/>
    </g>
    <g id="line2d_79">
     <path d="M 66.6 127.961063 
L 86.6 127.961063 
" style="fill: none; stroke: #8c564b; stroke-width: 1.5; stroke-linecap: square"/>
    </g>
    <g id="line2d_80"/>
    <g id="text_19">
     <!-- U10K -->
     <g transform="translate(94.6 131.461063) scale(0.1 -0.1)">
      <use xlink:href="#DejaVuSans-55"/>
      <use xlink:href="#DejaVuSans-31" x="73.193359"/>
      <use xlink:href="#DejaVuSans-30" x="136.816406"/>
      <use xlink:href="#DejaVuSans-4b" x="200.439453"/>
     </g>
    </g>
    <g id="LineCollection_14">
     <path d="M 76.6 147.639188 
L 76.6 137.639188 
" style="fill: none; stroke: #e377c2; stroke-width: 1.5"/>
    </g>
    <g id="line2d_81">
     <path d="M 66.6 142.639188 
L 86.6 142.639188 
" style="fill: none; stroke: #e377c2; stroke-width: 1.5; stroke-linecap: square"/>
    </g>
    <g id="line2d_82"/>
    <g id="text_20">
     <!-- U1T -->
     <g transform="translate(94.6 146.139188) scale(0.1 -0.1)">
      <use xlink:href="#DejaVuSans-55"/>
      <use xlink:href="#DejaVuSans-31" x="73.193359"/>
      <use xlink:href="#DejaVuSans-54" x="136.816406"/>
     </g>
    </g>
   </g>
  </g>
 </g>
 <defs>
  <clipPath id="p94b7e18f91">
   <rect x="57.6" y="41.472" width="357.12" height="266.112"/>
  </clipPath>
 </defs>
</svg>
